<svg xmlns="http://www.w3.org/2000/svg" xmlns:xlink="http://www.w3.org/1999/xlink" width="67" zoomAndPan="magnify" viewBox="0 0 50.25 50.249998" height="67" preserveAspectRatio="xMidYMid meet" version="1.0"><defs><clipPath id="c00088bb41"><path d="M 0 0 L 49.511719 0 L 49.511719 49.511719 L 0 49.511719 Z M 0 0 " clip-rule="nonzero"/></clipPath><clipPath id="fff35b70dc"><path d="M 0 0 L 49.367188 0 L 49.367188 49.367188 L 0 49.367188 Z M 0 0 " clip-rule="nonzero"/></clipPath><clipPath id="d3bb151199"><path d="M 24.683594 0 C 11.050781 0 0 11.050781 0 24.683594 C 0 38.316406 11.050781 49.367188 24.683594 49.367188 C 38.316406 49.367188 49.367188 38.316406 49.367188 24.683594 C 49.367188 11.050781 38.316406 0 24.683594 0 Z M 24.683594 0 " clip-rule="nonzero"/></clipPath><clipPath id="dddfac5ce6"><path d="M 0 0 L 49.367188 0 L 49.367188 49.367188 L 0 49.367188 Z M 0 0 " clip-rule="nonzero"/></clipPath><clipPath id="861899a240"><path d="M 24.683594 0 C 11.050781 0 0 11.050781 0 24.683594 C 0 38.316406 11.050781 49.367188 24.683594 49.367188 C 38.316406 49.367188 49.367188 38.316406 49.367188 24.683594 C 49.367188 11.050781 38.316406 0 24.683594 0 Z M 24.683594 0 " clip-rule="nonzero"/></clipPath><clipPath id="48906a4b0e"><rect x="0" width="50" y="0" height="50"/></clipPath><clipPath id="7d6b27f3ba"><path d="M 7.421875 12 L 42 12 L 42 38 L 7.421875 38 Z M 7.421875 12 " clip-rule="nonzero"/></clipPath></defs><g clip-path="url(#c00088bb41)"><path fill="#ffffff" d="M 0 0 L 49.511719 0 L 49.511719 49.511719 L 0 49.511719 Z M 0 0 " fill-opacity="1" fill-rule="nonzero"/></g><g clip-path="url(#fff35b70dc)"><g clip-path="url(#d3bb151199)"><g transform="matrix(1, 0, 0, 1, -0, 0)"><g clip-path="url(#48906a4b0e)"><g clip-path="url(#dddfac5ce6)"><g clip-path="url(#861899a240)"><path fill="#ffffff" d="M 0 0 L 49.367188 0 L 49.367188 49.367188 L 0 49.367188 Z M 0 0 " fill-opacity="1" fill-rule="nonzero"/></g></g></g></g></g></g><g clip-path="url(#7d6b27f3ba)"><path fill="#000000" d="M 34.410156 13.875 C 33.480469 13.230469 32.132812 13.1875 30.96875 12.886719 C 26.117188 11.59375 21.605469 12.761719 17.175781 14.777344 C 16.046875 15.292969 14.808594 15.988281 13.480469 14.941406 C 12.980469 14.679688 12.464844 14.636719 11.933594 14.816406 C 9.625 15.527344 8.859375 17.105469 9.441406 19.664062 C 9.546875 20.121094 9.664062 20.78125 9.441406 21.089844 C 7.519531 23.597656 7.386719 26.539062 7.453125 29.503906 C 7.472656 30.265625 7.640625 30.988281 7.957031 31.679688 C 8.277344 32.371094 8.71875 32.96875 9.28125 33.472656 C 11.074219 35.050781 13.140625 36.054688 15.480469 36.488281 C 15.480469 36.488281 21.214844 38.074219 25.367188 37.785156 C 26.441406 37.863281 27.511719 37.863281 28.585938 37.785156 C 31.441406 37.359375 34.34375 37.324219 36.945312 35.542969 C 37.742188 35.035156 38.464844 34.429688 39.109375 33.730469 C 39.753906 33.03125 40.296875 32.257812 40.738281 31.417969 C 41.179688 30.574219 41.507812 29.6875 41.71875 28.757812 C 41.929688 27.832031 42.019531 26.890625 41.988281 25.9375 C 42.035156 20.324219 38.664062 16.78125 34.410156 13.875 Z M 39.304688 31.285156 C 38.238281 33.289062 36.230469 34.625 34.09375 35.554688 C 31.308594 36.796875 28.375 36.738281 25.011719 36.65625 C 21.046875 37.222656 17.042969 35.6875 13.097656 34.148438 C 8.667969 32.480469 8.109375 29.90625 9.007812 25.503906 C 9.238281 23.828125 9.910156 22.363281 11.027344 21.101562 C 11.277344 20.847656 11.195312 20.0625 11.027344 19.628906 C 10.570312 18.558594 10.347656 17.582031 11.300781 16.671875 C 12.074219 16.019531 12.90625 15.851562 13.621094 16.605469 C 14.5 17.441406 15.28125 17.230469 16.277344 16.789062 C 18.015625 15.878906 19.824219 15.132812 21.695312 14.550781 C 23.664062 14 25.664062 13.769531 27.703125 13.859375 C 29.742188 13.949219 31.71875 14.355469 33.628906 15.078125 C 34.703125 15.621094 35.621094 16.359375 36.386719 17.289062 C 37.40625 18.316406 38.324219 19.429688 39.136719 20.632812 C 41.4375 24.125 41.15625 27.824219 39.304688 31.285156 Z M 39.304688 31.285156 " fill-opacity="1" fill-rule="nonzero"/></g><path fill="#000000" d="M 24.171875 17.550781 C 23.414062 17.027344 22.582031 16.851562 21.679688 17.023438 C 21.34375 17.074219 21.03125 17.199219 20.75 17.390625 C 20.558594 17.511719 20.425781 17.675781 20.34375 17.882812 C 20.296875 17.980469 20.277344 18.085938 20.285156 18.191406 C 20.332031 18.441406 20.472656 18.613281 20.707031 18.710938 C 20.84375 18.78125 20.988281 18.816406 21.140625 18.820312 C 21.234375 18.808594 21.324219 18.777344 21.40625 18.726562 C 22.160156 18.375 22.867188 18.226562 23.464844 18.96875 C 23.652344 19.171875 23.753906 19.414062 23.769531 19.691406 C 23.785156 19.964844 23.710938 20.214844 23.550781 20.441406 C 23.433594 20.640625 22.851562 21.273438 22.925781 21.550781 C 22.941406 21.628906 22.988281 21.675781 23.066406 21.691406 C 23.246094 21.78125 23.433594 21.835938 23.632812 21.855469 C 23.832031 21.871094 24.023438 21.851562 24.214844 21.792969 C 24.40625 21.734375 24.578125 21.644531 24.734375 21.519531 C 24.890625 21.398438 25.019531 21.25 25.121094 21.074219 C 25.234375 20.769531 25.300781 20.453125 25.316406 20.125 C 25.332031 19.796875 25.296875 19.476562 25.210938 19.160156 C 25.125 18.84375 24.996094 18.546875 24.816406 18.273438 C 24.640625 17.996094 24.425781 17.757812 24.171875 17.550781 Z M 24.171875 17.550781 " fill-opacity="1" fill-rule="nonzero"/><path fill="#000000" d="M 13.679688 25.796875 C 13.800781 25.429688 13.84375 25.050781 13.804688 24.667969 C 13.804688 24.007812 13.527344 23.054688 12.699219 23.148438 C 12.496094 23.183594 12.308594 23.253906 12.136719 23.355469 C 11.960938 23.460938 11.808594 23.59375 11.683594 23.753906 C 11.558594 23.914062 11.464844 24.089844 11.402344 24.285156 C 11.339844 24.480469 11.316406 24.679688 11.328125 24.882812 C 11.320312 25.066406 11.347656 25.246094 11.410156 25.417969 C 11.554688 25.785156 11.800781 26.0625 12.140625 26.253906 C 12.351562 26.402344 12.582031 26.476562 12.839844 26.480469 C 13.253906 26.421875 13.535156 26.191406 13.679688 25.796875 Z M 13.679688 25.796875 " fill-opacity="1" fill-rule="nonzero"/><path fill="#000000" d="M 16.992188 23.964844 C 16.792969 24.117188 16.613281 24.296875 16.460938 24.5 C 16.207031 24.90625 16.148438 25.335938 16.289062 25.796875 C 16.382812 26.125 16.554688 26.40625 16.804688 26.640625 C 17.050781 26.875 17.34375 27.03125 17.675781 27.105469 C 18.011719 27.171875 18.335938 27.144531 18.65625 27.023438 C 18.976562 26.902344 19.242188 26.707031 19.453125 26.4375 C 19.617188 26.273438 19.746094 26.082031 19.835938 25.863281 C 19.921875 25.644531 19.96875 25.421875 19.96875 25.183594 C 19.96875 24.949219 19.921875 24.726562 19.832031 24.507812 C 19.746094 24.289062 19.617188 24.097656 19.453125 23.933594 C 19.285156 23.765625 19.097656 23.640625 18.878906 23.550781 C 18.664062 23.460938 18.441406 23.414062 18.207031 23.414062 C 17.972656 23.414062 17.746094 23.457031 17.53125 23.546875 C 17.316406 23.636719 17.125 23.765625 16.960938 23.933594 Z M 16.992188 23.964844 " fill-opacity="1" fill-rule="nonzero"/><path fill="#000000" d="M 16.113281 29.136719 C 15.019531 29.199219 13.96875 29.023438 12.957031 28.609375 C 12.871094 28.589844 12.792969 28.597656 12.71875 28.640625 C 12.644531 28.683594 12.597656 28.746094 12.574219 28.828125 C 12.550781 28.910156 12.5625 28.992188 12.601562 29.066406 C 12.644531 29.144531 12.707031 29.195312 12.789062 29.21875 C 13.859375 29.644531 14.964844 29.824219 16.113281 29.761719 C 16.511719 29.773438 16.511719 29.136719 16.113281 29.136719 Z M 16.113281 29.136719 " fill-opacity="1" fill-rule="nonzero"/></svg>