<svg xmlns="http://www.w3.org/2000/svg" xmlns:xlink="http://www.w3.org/1999/xlink" width="241" zoomAndPan="magnify" viewBox="0 0 180.75 57.749997" height="77" preserveAspectRatio="xMidYMid meet" version="1.0"><defs><g/><clipPath id="dd46fcd537"><path d="M 0.265625 17.175781 L 35 17.175781 L 35 44 L 0.265625 44 Z M 0.265625 17.175781 " clip-rule="nonzero"/></clipPath></defs><g clip-path="url(#dd46fcd537)"><path fill="#ffffff" d="M 27.363281 19.511719 C 26.429688 18.871094 25.078125 18.828125 23.910156 18.527344 C 19.039062 17.234375 14.507812 18.402344 10.058594 20.414062 C 8.925781 20.933594 7.683594 21.625 6.347656 20.582031 C 5.847656 20.316406 5.332031 20.277344 4.796875 20.457031 C 2.476562 21.164062 1.707031 22.742188 2.292969 25.296875 C 2.402344 25.753906 2.519531 26.414062 2.292969 26.722656 C 0.363281 29.226562 0.230469 32.164062 0.296875 35.125 C 0.316406 35.882812 0.484375 36.609375 0.804688 37.296875 C 1.125 37.984375 1.566406 38.582031 2.132812 39.085938 C 3.933594 40.660156 6.007812 41.664062 8.359375 42.101562 C 8.359375 42.101562 14.117188 43.683594 18.289062 43.394531 C 19.363281 43.472656 20.441406 43.472656 21.515625 43.394531 C 24.386719 42.96875 27.296875 42.933594 29.910156 41.15625 C 30.714844 40.648438 31.4375 40.042969 32.085938 39.34375 C 32.730469 38.644531 33.277344 37.875 33.71875 37.035156 C 34.164062 36.191406 34.492188 35.308594 34.707031 34.378906 C 34.917969 33.453125 35.007812 32.511719 34.972656 31.5625 C 35.023438 25.953125 31.636719 22.417969 27.363281 19.511719 Z M 32.28125 36.902344 C 31.210938 38.902344 29.191406 40.238281 27.046875 41.164062 C 24.253906 42.410156 21.308594 42.351562 17.929688 42.265625 C 13.949219 42.832031 9.925781 41.296875 5.964844 39.761719 C 1.515625 38.09375 0.957031 35.523438 1.859375 31.128906 C 2.089844 29.457031 2.765625 27.992188 3.886719 26.730469 C 4.136719 26.480469 4.054688 25.695312 3.886719 25.261719 C 3.425781 24.195312 3.203125 23.21875 4.160156 22.308594 C 4.9375 21.65625 5.773438 21.492188 6.488281 22.242188 C 7.375 23.074219 8.15625 22.867188 9.160156 22.425781 C 10.90625 21.515625 12.71875 20.769531 14.597656 20.1875 C 16.574219 19.636719 18.585938 19.40625 20.632812 19.496094 C 22.679688 19.585938 24.664062 19.992188 26.582031 20.714844 C 27.660156 21.257812 28.582031 21.996094 29.351562 22.925781 C 30.375 23.953125 31.296875 25.0625 32.113281 26.261719 C 34.425781 29.75 34.140625 33.449219 32.28125 36.902344 Z M 32.28125 36.902344 " fill-opacity="1" fill-rule="nonzero"/></g><path fill="#ffffff" d="M 17.085938 23.183594 C 16.324219 22.664062 15.488281 22.488281 14.582031 22.660156 C 14.242188 22.710938 13.933594 22.835938 13.648438 23.027344 C 13.457031 23.144531 13.320312 23.308594 13.238281 23.519531 C 13.195312 23.617188 13.175781 23.71875 13.179688 23.828125 C 13.230469 24.078125 13.371094 24.25 13.605469 24.34375 C 13.742188 24.414062 13.886719 24.449219 14.039062 24.453125 C 14.136719 24.441406 14.226562 24.410156 14.308594 24.359375 C 15.066406 24.011719 15.777344 23.859375 16.375 24.601562 C 16.5625 24.804688 16.664062 25.046875 16.679688 25.324219 C 16.695312 25.597656 16.621094 25.847656 16.460938 26.070312 C 16.34375 26.273438 15.757812 26.90625 15.835938 27.179688 C 15.851562 27.257812 15.898438 27.304688 15.976562 27.324219 C 16.15625 27.414062 16.34375 27.464844 16.542969 27.484375 C 16.742188 27.5 16.9375 27.480469 17.128906 27.421875 C 17.320312 27.367188 17.496094 27.273438 17.652344 27.152344 C 17.808594 27.027344 17.9375 26.878906 18.035156 26.707031 C 18.152344 26.398438 18.21875 26.082031 18.234375 25.757812 C 18.25 25.429688 18.214844 25.109375 18.128906 24.792969 C 18.042969 24.476562 17.914062 24.179688 17.734375 23.90625 C 17.554688 23.632812 17.339844 23.390625 17.085938 23.183594 Z M 17.085938 23.183594 " fill-opacity="1" fill-rule="nonzero"/><path fill="#ffffff" d="M 6.546875 31.417969 C 6.671875 31.054688 6.710938 30.679688 6.671875 30.292969 C 6.671875 29.632812 6.398438 28.683594 5.5625 28.773438 C 5.363281 28.808594 5.175781 28.878906 5 28.984375 C 4.824219 29.089844 4.671875 29.222656 4.546875 29.382812 C 4.417969 29.542969 4.324219 29.71875 4.261719 29.914062 C 4.199219 30.105469 4.175781 30.304688 4.1875 30.511719 C 4.179688 30.695312 4.207031 30.871094 4.269531 31.042969 C 4.417969 31.410156 4.660156 31.6875 5.003906 31.878906 C 5.214844 32.027344 5.449219 32.101562 5.707031 32.105469 C 6.125 32.046875 6.40625 31.816406 6.546875 31.417969 Z M 6.546875 31.417969 " fill-opacity="1" fill-rule="nonzero"/><path fill="#ffffff" d="M 9.875 29.59375 C 9.671875 29.746094 9.496094 29.921875 9.34375 30.125 C 9.085938 30.53125 9.027344 30.960938 9.167969 31.417969 C 9.265625 31.746094 9.4375 32.027344 9.6875 32.261719 C 9.9375 32.496094 10.226562 32.652344 10.5625 32.730469 C 10.898438 32.792969 11.226562 32.765625 11.546875 32.648438 C 11.867188 32.527344 12.136719 32.332031 12.347656 32.0625 C 12.511719 31.894531 12.640625 31.703125 12.730469 31.488281 C 12.820312 31.269531 12.863281 31.046875 12.863281 30.8125 C 12.863281 30.578125 12.820312 30.351562 12.730469 30.132812 C 12.640625 29.917969 12.511719 29.726562 12.34375 29.558594 C 12.179688 29.394531 11.988281 29.265625 11.773438 29.175781 C 11.554688 29.085938 11.328125 29.042969 11.09375 29.042969 C 10.859375 29.042969 10.632812 29.085938 10.417969 29.175781 C 10.199219 29.265625 10.007812 29.394531 9.84375 29.558594 Z M 9.875 29.59375 " fill-opacity="1" fill-rule="nonzero"/><path fill="#ffffff" d="M 8.992188 34.757812 C 7.898438 34.816406 6.839844 34.644531 5.820312 34.230469 C 5.738281 34.210938 5.660156 34.21875 5.585938 34.261719 C 5.511719 34.304688 5.460938 34.367188 5.4375 34.449219 C 5.417969 34.53125 5.425781 34.613281 5.46875 34.6875 C 5.511719 34.761719 5.574219 34.816406 5.65625 34.839844 C 6.726562 35.261719 7.839844 35.441406 8.992188 35.382812 C 9.394531 35.390625 9.394531 34.757812 8.992188 34.757812 Z M 8.992188 34.757812 " fill-opacity="1" fill-rule="nonzero"/><g fill="#ffffff" fill-opacity="1"><g transform="translate(36.979479, 37.991784)"><g><path d="M 1.46875 -0.3125 C 1.632812 -1.300781 1.820312 -2.28125 2.03125 -3.25 C 2.25 -4.21875 2.410156 -5.195312 2.515625 -6.1875 C 2.597656 -7.164062 2.613281 -8.125 2.5625 -9.0625 C 2.507812 -10.007812 2.566406 -10.972656 2.734375 -11.953125 C 2.773438 -12.273438 2.96875 -12.519531 3.3125 -12.6875 C 3.65625 -12.851562 3.972656 -12.894531 4.265625 -12.8125 C 4.617188 -12.707031 4.863281 -12.507812 5 -12.21875 C 5.132812 -11.9375 5.179688 -11.628906 5.140625 -11.296875 C 5.054688 -10.816406 5.019531 -10.328125 5.03125 -9.828125 C 5.039062 -9.328125 5.054688 -8.832031 5.078125 -8.34375 C 5.078125 -7.382812 5.015625 -6.425781 4.890625 -5.46875 C 4.765625 -4.476562 4.601562 -3.503906 4.40625 -2.546875 C 4.207031 -1.597656 4.023438 -0.632812 3.859375 0.34375 C 3.796875 0.675781 3.597656 0.925781 3.265625 1.09375 C 2.929688 1.257812 2.617188 1.300781 2.328125 1.21875 C 1.972656 1.113281 1.722656 0.914062 1.578125 0.625 C 1.441406 0.332031 1.40625 0.0195312 1.46875 -0.3125 Z M 2.953125 -14.625 C 2.804688 -14.664062 2.660156 -14.734375 2.515625 -14.828125 C 2.367188 -14.921875 2.265625 -15.039062 2.203125 -15.1875 C 2.140625 -15.351562 2.085938 -15.5 2.046875 -15.625 C 2.003906 -15.75 1.984375 -15.890625 1.984375 -16.046875 C 1.984375 -16.234375 2.015625 -16.421875 2.078125 -16.609375 C 2.160156 -16.984375 2.328125 -17.253906 2.578125 -17.421875 C 2.660156 -17.546875 2.773438 -17.640625 2.921875 -17.703125 C 3.148438 -17.847656 3.410156 -17.925781 3.703125 -17.9375 C 3.992188 -17.945312 4.253906 -17.867188 4.484375 -17.703125 C 4.585938 -17.617188 4.691406 -17.53125 4.796875 -17.4375 C 4.898438 -17.34375 4.984375 -17.222656 5.046875 -17.078125 C 5.085938 -16.972656 5.132812 -16.859375 5.1875 -16.734375 C 5.238281 -16.609375 5.253906 -16.484375 5.234375 -16.359375 C 5.210938 -16.210938 5.191406 -16.078125 5.171875 -15.953125 C 5.148438 -15.835938 5.097656 -15.726562 5.015625 -15.625 C 4.910156 -15.476562 4.828125 -15.375 4.765625 -15.3125 C 4.703125 -15.25 4.597656 -15.164062 4.453125 -15.0625 C 4.367188 -14.976562 4.242188 -14.914062 4.078125 -14.875 C 3.640625 -14.625 3.265625 -14.539062 2.953125 -14.625 Z M 2.953125 -14.625 "/></g></g></g><g fill="#ffffff" fill-opacity="1"><g transform="translate(44.134251, 37.991784)"><g><path d="M 1.625 -2.984375 C 1.625 -3.878906 1.679688 -4.78125 1.796875 -5.6875 C 1.941406 -6.789062 2.085938 -7.882812 2.234375 -8.96875 C 2.378906 -10.0625 2.441406 -11.171875 2.421875 -12.296875 C 2.421875 -12.679688 2.546875 -12.976562 2.796875 -13.1875 C 3.046875 -13.394531 3.328125 -13.5 3.640625 -13.5 C 3.953125 -13.5 4.242188 -13.394531 4.515625 -13.1875 C 4.785156 -12.976562 4.921875 -12.679688 4.921875 -12.296875 C 5.722656 -12.359375 6.488281 -12.390625 7.21875 -12.390625 C 8.050781 -12.367188 8.753906 -12.128906 9.328125 -11.671875 C 9.910156 -11.210938 10.347656 -10.597656 10.640625 -9.828125 C 10.890625 -9.128906 11.035156 -8.40625 11.078125 -7.65625 C 11.117188 -6.90625 11.148438 -6.15625 11.171875 -5.40625 C 11.191406 -4.351562 11.222656 -3.300781 11.265625 -2.25 C 11.304688 -1.207031 11.328125 -0.15625 11.328125 0.90625 C 11.328125 1.320312 11.195312 1.625 10.9375 1.8125 C 10.675781 2.007812 10.394531 2.109375 10.09375 2.109375 C 9.789062 2.109375 9.507812 2.007812 9.25 1.8125 C 8.988281 1.625 8.859375 1.320312 8.859375 0.90625 C 8.859375 -0.09375 8.84375 -1.066406 8.8125 -2.015625 C 8.789062 -2.972656 8.757812 -3.953125 8.71875 -4.953125 C 8.675781 -5.484375 8.660156 -6.035156 8.671875 -6.609375 C 8.679688 -7.179688 8.632812 -7.707031 8.53125 -8.1875 C 8.46875 -8.476562 8.40625 -8.726562 8.34375 -8.9375 C 8.28125 -9.15625 8.164062 -9.367188 8 -9.578125 C 7.957031 -9.660156 7.867188 -9.734375 7.734375 -9.796875 C 7.597656 -9.859375 7.476562 -9.890625 7.375 -9.890625 C 7.0625 -9.890625 6.769531 -9.867188 6.5 -9.828125 C 6.226562 -9.785156 5.945312 -9.722656 5.65625 -9.640625 C 5.53125 -9.597656 5.40625 -9.554688 5.28125 -9.515625 C 5.164062 -9.472656 5.054688 -9.421875 4.953125 -9.359375 C 4.742188 -8.617188 4.59375 -7.910156 4.5 -7.234375 C 4.40625 -6.554688 4.316406 -5.878906 4.234375 -5.203125 C 4.171875 -4.703125 4.132812 -4.195312 4.125 -3.6875 C 4.113281 -3.175781 4.09375 -2.671875 4.0625 -2.171875 C 4.03125 -1.679688 3.96875 -1.1875 3.875 -0.6875 C 3.78125 -0.1875 3.617188 0.289062 3.390625 0.75 C 3.203125 1.101562 2.953125 1.304688 2.640625 1.359375 C 2.328125 1.410156 2.039062 1.359375 1.78125 1.203125 C 1.53125 1.046875 1.335938 0.8125 1.203125 0.5 C 1.066406 0.1875 1.082031 -0.144531 1.25 -0.5 C 1.4375 -0.875 1.539062 -1.273438 1.5625 -1.703125 C 1.582031 -2.140625 1.601562 -2.566406 1.625 -2.984375 Z M 1.625 -2.984375 "/></g></g></g><g fill="#ffffff" fill-opacity="1"><g transform="translate(57.075056, 37.991784)"><g><path d="M 2.015625 -6.71875 C 1.929688 -6.96875 1.921875 -7.226562 1.984375 -7.5 C 1.835938 -10.007812 1.679688 -12.503906 1.515625 -14.984375 C 1.359375 -17.460938 1.375 -19.957031 1.5625 -22.46875 C 1.601562 -22.820312 1.726562 -23.113281 1.9375 -23.34375 C 2.15625 -23.582031 2.441406 -23.703125 2.796875 -23.703125 C 3.128906 -23.703125 3.429688 -23.582031 3.703125 -23.34375 C 3.972656 -23.113281 4.085938 -22.820312 4.046875 -22.46875 C 3.878906 -20.207031 3.859375 -17.96875 3.984375 -15.75 C 4.109375 -13.539062 4.242188 -11.304688 4.390625 -9.046875 C 5.546875 -9.773438 6.707031 -10.484375 7.875 -11.171875 C 9.050781 -11.859375 10.203125 -12.582031 11.328125 -13.34375 C 11.660156 -13.570312 11.972656 -13.628906 12.265625 -13.515625 C 12.566406 -13.398438 12.796875 -13.207031 12.953125 -12.9375 C 13.109375 -12.664062 13.164062 -12.363281 13.125 -12.03125 C 13.082031 -11.707031 12.894531 -11.429688 12.5625 -11.203125 C 11.445312 -10.429688 10.3125 -9.707031 9.15625 -9.03125 C 8.007812 -8.363281 6.851562 -7.675781 5.6875 -6.96875 C 7.082031 -6.03125 8.460938 -5.082031 9.828125 -4.125 C 11.203125 -3.175781 12.539062 -2.175781 13.84375 -1.125 C 14.113281 -0.894531 14.238281 -0.597656 14.21875 -0.234375 C 14.195312 0.128906 14.070312 0.425781 13.84375 0.65625 C 13.570312 0.90625 13.273438 1.019531 12.953125 1 C 12.628906 0.976562 12.335938 0.863281 12.078125 0.65625 C 10.867188 -0.320312 9.640625 -1.242188 8.390625 -2.109375 C 7.148438 -2.984375 5.890625 -3.859375 4.609375 -4.734375 C 4.628906 -3.941406 4.632812 -3.140625 4.625 -2.328125 C 4.613281 -1.523438 4.585938 -0.726562 4.546875 0.0625 C 4.523438 0.476562 4.382812 0.785156 4.125 0.984375 C 3.863281 1.179688 3.578125 1.28125 3.265625 1.28125 C 2.953125 1.28125 2.671875 1.179688 2.421875 0.984375 C 2.171875 0.785156 2.054688 0.476562 2.078125 0.0625 C 2.117188 -1.0625 2.132812 -2.1875 2.125 -3.3125 C 2.113281 -4.445312 2.078125 -5.582031 2.015625 -6.71875 Z M 2.015625 -6.71875 "/></g></g></g><g fill="#ffffff" fill-opacity="1"><g transform="translate(70.94909, 37.991784)"><g><path d="M 2.578125 -6.90625 C 2.035156 -7.300781 1.648438 -7.789062 1.421875 -8.375 C 1.203125 -8.96875 1.195312 -9.597656 1.40625 -10.265625 C 1.613281 -10.867188 1.929688 -11.40625 2.359375 -11.875 C 2.796875 -12.351562 3.296875 -12.738281 3.859375 -13.03125 C 4.484375 -13.363281 5.144531 -13.625 5.84375 -13.8125 C 6.550781 -14 7.265625 -14.101562 7.984375 -14.125 C 8.710938 -14.144531 9.4375 -14.078125 10.15625 -13.921875 C 10.875 -13.765625 11.554688 -13.519531 12.203125 -13.1875 C 12.546875 -13 12.738281 -12.75 12.78125 -12.4375 C 12.820312 -12.132812 12.765625 -11.847656 12.609375 -11.578125 C 12.460938 -11.304688 12.234375 -11.109375 11.921875 -10.984375 C 11.609375 -10.859375 11.273438 -10.890625 10.921875 -11.078125 C 10.421875 -11.347656 9.859375 -11.523438 9.234375 -11.609375 C 8.617188 -11.691406 7.992188 -11.695312 7.359375 -11.625 C 6.722656 -11.550781 6.125 -11.390625 5.5625 -11.140625 C 5.007812 -10.890625 4.546875 -10.566406 4.171875 -10.171875 C 4.066406 -10.066406 4 -9.992188 3.96875 -9.953125 C 3.9375 -9.910156 3.890625 -9.816406 3.828125 -9.671875 L 3.765625 -9.328125 C 3.828125 -9.140625 3.878906 -9.023438 3.921875 -8.984375 C 4.335938 -8.722656 4.765625 -8.554688 5.203125 -8.484375 C 5.648438 -8.410156 6.101562 -8.363281 6.5625 -8.34375 C 7.207031 -8.300781 7.863281 -8.265625 8.53125 -8.234375 C 9.207031 -8.203125 9.863281 -8.113281 10.5 -7.96875 C 11.132812 -7.820312 11.71875 -7.582031 12.25 -7.25 C 12.789062 -6.914062 13.25 -6.425781 13.625 -5.78125 C 14.039062 -5.0625 14.234375 -4.3125 14.203125 -3.53125 C 14.171875 -2.75 13.863281 -2.050781 13.28125 -1.4375 C 12.695312 -0.8125 12.019531 -0.378906 11.25 -0.140625 C 10.488281 0.0976562 9.710938 0.269531 8.921875 0.375 C 8.222656 0.457031 7.492188 0.476562 6.734375 0.4375 C 5.972656 0.394531 5.242188 0.273438 4.546875 0.078125 C 3.859375 -0.117188 3.210938 -0.421875 2.609375 -0.828125 C 2.015625 -1.234375 1.519531 -1.765625 1.125 -2.421875 C 0.9375 -2.753906 0.90625 -3.070312 1.03125 -3.375 C 1.15625 -3.675781 1.34375 -3.90625 1.59375 -4.0625 C 1.851562 -4.21875 2.144531 -4.273438 2.46875 -4.234375 C 2.789062 -4.191406 3.054688 -4.003906 3.265625 -3.671875 C 3.554688 -3.191406 3.960938 -2.828125 4.484375 -2.578125 C 5.003906 -2.328125 5.566406 -2.15625 6.171875 -2.0625 C 6.785156 -1.96875 7.398438 -1.945312 8.015625 -2 C 8.640625 -2.050781 9.203125 -2.128906 9.703125 -2.234375 C 9.972656 -2.296875 10.25 -2.382812 10.53125 -2.5 C 10.8125 -2.613281 11.050781 -2.753906 11.25 -2.921875 C 11.445312 -3.085938 11.585938 -3.28125 11.671875 -3.5 C 11.753906 -3.71875 11.742188 -3.960938 11.640625 -4.234375 C 11.429688 -4.753906 11.082031 -5.125 10.59375 -5.34375 C 10.101562 -5.570312 9.585938 -5.707031 9.046875 -5.75 C 8.515625 -5.789062 7.96875 -5.8125 7.40625 -5.8125 C 6.84375 -5.8125 6.28125 -5.835938 5.71875 -5.890625 C 5.164062 -5.941406 4.617188 -6.039062 4.078125 -6.1875 C 3.535156 -6.332031 3.035156 -6.570312 2.578125 -6.90625 Z M 2.578125 -6.90625 "/></g></g></g><g fill="#ffffff" fill-opacity="1"><g transform="translate(86.098542, 37.991784)"><g><path d="M 10.859375 -10.859375 C 11.253906 -10.859375 11.550781 -10.734375 11.75 -10.484375 C 11.945312 -10.234375 12.046875 -9.953125 12.046875 -9.640625 C 12.046875 -9.328125 11.945312 -9.039062 11.75 -8.78125 C 11.550781 -8.53125 11.253906 -8.40625 10.859375 -8.40625 C 10.359375 -8.382812 9.863281 -8.390625 9.375 -8.421875 C 8.894531 -8.453125 8.414062 -8.488281 7.9375 -8.53125 C 7.957031 -6.882812 7.929688 -5.242188 7.859375 -3.609375 C 7.785156 -1.972656 7.613281 -0.34375 7.34375 1.28125 C 7.300781 1.625 7.113281 1.878906 6.78125 2.046875 C 6.445312 2.210938 6.125 2.242188 5.8125 2.140625 C 5.46875 2.035156 5.226562 1.84375 5.09375 1.5625 C 4.957031 1.289062 4.921875 0.976562 4.984375 0.625 C 5.222656 -0.957031 5.359375 -2.535156 5.390625 -4.109375 C 5.421875 -5.679688 5.414062 -7.265625 5.375 -8.859375 C 4.59375 -8.984375 3.796875 -9.113281 2.984375 -9.25 C 2.171875 -9.382812 1.375 -9.503906 0.59375 -9.609375 C 0.238281 -9.648438 -0.015625 -9.84375 -0.171875 -10.1875 C -0.328125 -10.53125 -0.363281 -10.847656 -0.28125 -11.140625 C -0.175781 -11.492188 0.0195312 -11.738281 0.3125 -11.875 C 0.601562 -12.007812 0.914062 -12.054688 1.25 -12.015625 C 1.925781 -11.910156 2.609375 -11.800781 3.296875 -11.6875 C 3.984375 -11.570312 4.675781 -11.460938 5.375 -11.359375 C 5.351562 -11.460938 5.34375 -11.617188 5.34375 -11.828125 C 5.34375 -13.691406 5.335938 -15.535156 5.328125 -17.359375 C 5.316406 -19.179688 5.40625 -21.03125 5.59375 -22.90625 C 5.632812 -23.226562 5.765625 -23.515625 5.984375 -23.765625 C 6.203125 -24.015625 6.488281 -24.140625 6.84375 -24.140625 C 7.15625 -24.140625 7.453125 -24.015625 7.734375 -23.765625 C 8.015625 -23.515625 8.132812 -23.226562 8.09375 -22.90625 C 7.882812 -20.90625 7.785156 -18.925781 7.796875 -16.96875 C 7.804688 -15.007812 7.832031 -13.023438 7.875 -11.015625 C 8.375 -10.972656 8.867188 -10.9375 9.359375 -10.90625 C 9.859375 -10.875 10.359375 -10.859375 10.859375 -10.859375 Z M 10.859375 -10.859375 "/></g></g></g><g fill="#ffffff" fill-opacity="1"><g transform="translate(98.479407, 37.991784)"><g><path d="M 1.828125 -12.65625 C 1.847656 -13.050781 1.992188 -13.347656 2.265625 -13.546875 C 2.535156 -13.742188 2.828125 -13.84375 3.140625 -13.84375 C 3.453125 -13.84375 3.726562 -13.742188 3.96875 -13.546875 C 4.207031 -13.347656 4.316406 -13.050781 4.296875 -12.65625 C 4.296875 -12.53125 4.289062 -12.398438 4.28125 -12.265625 C 4.269531 -12.140625 4.265625 -12.015625 4.265625 -11.890625 C 4.929688 -12.222656 5.628906 -12.503906 6.359375 -12.734375 C 7.097656 -12.972656 7.832031 -13.125 8.5625 -13.1875 C 9.300781 -13.25 10.019531 -13.191406 10.71875 -13.015625 C 11.414062 -12.835938 12.050781 -12.503906 12.625 -12.015625 C 12.914062 -11.742188 13.046875 -11.453125 13.015625 -11.140625 C 12.984375 -10.828125 12.859375 -10.5625 12.640625 -10.34375 C 12.429688 -10.125 12.160156 -9.988281 11.828125 -9.9375 C 11.492188 -9.882812 11.171875 -9.984375 10.859375 -10.234375 C 10.628906 -10.421875 10.375 -10.554688 10.09375 -10.640625 C 9.8125 -10.722656 9.507812 -10.757812 9.1875 -10.75 C 8.875 -10.738281 8.554688 -10.703125 8.234375 -10.640625 C 7.910156 -10.578125 7.601562 -10.503906 7.3125 -10.421875 C 6.207031 -10.066406 5.179688 -9.597656 4.234375 -9.015625 C 4.273438 -8.003906 4.335938 -6.988281 4.421875 -5.96875 C 4.503906 -5.125 4.578125 -4.25 4.640625 -3.34375 C 4.703125 -2.4375 4.878906 -1.582031 5.171875 -0.78125 C 5.285156 -0.40625 5.253906 -0.0859375 5.078125 0.171875 C 4.910156 0.429688 4.675781 0.601562 4.375 0.6875 C 4.070312 0.769531 3.757812 0.75 3.4375 0.625 C 3.113281 0.5 2.890625 0.25 2.765625 -0.125 C 2.597656 -0.601562 2.484375 -1.085938 2.421875 -1.578125 C 2.359375 -2.078125 2.296875 -2.578125 2.234375 -3.078125 C 2.191406 -3.554688 2.144531 -4.039062 2.09375 -4.53125 C 2.039062 -5.019531 1.992188 -5.5 1.953125 -5.96875 C 1.847656 -7.09375 1.78125 -8.207031 1.75 -9.3125 C 1.726562 -10.425781 1.753906 -11.539062 1.828125 -12.65625 Z M 1.828125 -12.65625 "/></g></g></g><g fill="#ffffff" fill-opacity="1"><g transform="translate(111.513535, 37.991784)"><g><path d="M 2.328125 -12.078125 C 2.722656 -12.609375 3.195312 -13.082031 3.75 -13.5 C 4.300781 -13.914062 4.882812 -14.242188 5.5 -14.484375 C 6.125 -14.722656 6.769531 -14.847656 7.4375 -14.859375 C 8.101562 -14.867188 8.765625 -14.738281 9.421875 -14.46875 C 10.066406 -14.21875 10.648438 -13.878906 11.171875 -13.453125 C 11.691406 -13.023438 12.097656 -12.484375 12.390625 -11.828125 C 12.609375 -11.328125 12.738281 -10.785156 12.78125 -10.203125 C 12.820312 -9.617188 12.671875 -9.09375 12.328125 -8.625 C 12.015625 -8.1875 11.632812 -7.851562 11.1875 -7.625 C 10.738281 -7.394531 10.257812 -7.226562 9.75 -7.125 C 9.238281 -7.019531 8.71875 -6.96875 8.1875 -6.96875 C 7.664062 -6.96875 7.164062 -6.976562 6.6875 -7 C 6.144531 -7.019531 5.609375 -7.0625 5.078125 -7.125 C 4.554688 -7.1875 4.023438 -7.25 3.484375 -7.3125 C 3.648438 -6.375 3.984375 -5.539062 4.484375 -4.8125 C 4.984375 -4.09375 5.65625 -3.546875 6.5 -3.171875 C 6.726562 -3.085938 6.90625 -3.023438 7.03125 -2.984375 C 7.09375 -2.960938 7.148438 -2.945312 7.203125 -2.9375 C 7.253906 -2.925781 7.3125 -2.921875 7.375 -2.921875 C 7.539062 -2.898438 7.679688 -2.882812 7.796875 -2.875 C 7.910156 -2.863281 8.019531 -2.867188 8.125 -2.890625 C 8.269531 -2.910156 8.367188 -2.925781 8.421875 -2.9375 C 8.472656 -2.945312 8.53125 -2.960938 8.59375 -2.984375 C 8.8125 -3.046875 9.007812 -3.117188 9.1875 -3.203125 C 9.363281 -3.285156 9.578125 -3.421875 9.828125 -3.609375 C 9.953125 -3.710938 10.117188 -3.867188 10.328125 -4.078125 C 10.535156 -4.285156 10.710938 -4.472656 10.859375 -4.640625 C 11.066406 -4.929688 11.320312 -5.125 11.625 -5.21875 C 11.925781 -5.320312 12.226562 -5.285156 12.53125 -5.109375 C 12.800781 -4.941406 12.992188 -4.6875 13.109375 -4.34375 C 13.222656 -4 13.175781 -3.679688 12.96875 -3.390625 C 12.375 -2.578125 11.664062 -1.882812 10.84375 -1.3125 C 10.019531 -0.75 9.082031 -0.445312 8.03125 -0.40625 C 7.175781 -0.363281 6.351562 -0.515625 5.5625 -0.859375 C 4.78125 -1.203125 4.085938 -1.660156 3.484375 -2.234375 C 2.734375 -2.960938 2.140625 -3.800781 1.703125 -4.75 C 1.273438 -5.707031 1.039062 -6.6875 1 -7.6875 C 0.8125 -7.832031 0.671875 -8.015625 0.578125 -8.234375 C 0.484375 -8.453125 0.453125 -8.671875 0.484375 -8.890625 C 0.515625 -9.117188 0.59375 -9.332031 0.71875 -9.53125 C 0.84375 -9.726562 1.03125 -9.859375 1.28125 -9.921875 C 1.507812 -10.691406 1.859375 -11.410156 2.328125 -12.078125 Z M 9.796875 -11.328125 C 9.566406 -11.617188 9.21875 -11.878906 8.75 -12.109375 C 8.351562 -12.273438 7.890625 -12.359375 7.359375 -12.359375 C 6.828125 -12.359375 6.375 -12.265625 6 -12.078125 C 5.53125 -11.847656 5.109375 -11.53125 4.734375 -11.125 C 4.359375 -10.71875 4.054688 -10.265625 3.828125 -9.765625 C 4.328125 -9.703125 4.820312 -9.640625 5.3125 -9.578125 C 5.8125 -9.515625 6.3125 -9.472656 6.8125 -9.453125 C 7.082031 -9.453125 7.351562 -9.453125 7.625 -9.453125 C 7.894531 -9.453125 8.164062 -9.460938 8.4375 -9.484375 C 8.519531 -9.484375 8.597656 -9.488281 8.671875 -9.5 C 8.742188 -9.507812 8.816406 -9.515625 8.890625 -9.515625 C 9.078125 -9.554688 9.21875 -9.582031 9.3125 -9.59375 C 9.40625 -9.601562 9.503906 -9.628906 9.609375 -9.671875 C 9.691406 -9.691406 9.796875 -9.722656 9.921875 -9.765625 C 10.023438 -9.804688 10.085938 -9.835938 10.109375 -9.859375 C 10.128906 -9.878906 10.160156 -9.898438 10.203125 -9.921875 L 10.296875 -10.296875 C 10.253906 -10.378906 10.226562 -10.457031 10.21875 -10.53125 C 10.207031 -10.601562 10.179688 -10.671875 10.140625 -10.734375 C 10.117188 -10.796875 10.070312 -10.890625 10 -11.015625 C 9.925781 -11.140625 9.859375 -11.242188 9.796875 -11.328125 Z M 9.796875 -11.328125 "/></g></g></g><g fill="#ffffff" fill-opacity="1"><g transform="translate(125.480893, 37.991784)"><g><path d="M 3.640625 -0.84375 C 2.929688 -1.15625 2.375 -1.582031 1.96875 -2.125 C 1.570312 -2.675781 1.296875 -3.285156 1.140625 -3.953125 C 0.984375 -4.617188 0.9375 -5.304688 1 -6.015625 C 1.0625 -6.734375 1.207031 -7.425781 1.4375 -8.09375 C 1.625 -8.601562 1.832031 -9.140625 2.0625 -9.703125 C 2.300781 -10.265625 2.585938 -10.785156 2.921875 -11.265625 C 3.253906 -11.742188 3.648438 -12.148438 4.109375 -12.484375 C 4.566406 -12.828125 5.101562 -13.050781 5.71875 -13.15625 C 6.363281 -13.257812 7.015625 -13.296875 7.671875 -13.265625 C 8.328125 -13.234375 8.972656 -13.164062 9.609375 -13.0625 C 9.898438 -13.019531 10.179688 -12.953125 10.453125 -12.859375 C 10.722656 -12.765625 10.992188 -12.664062 11.265625 -12.5625 C 11.285156 -12.875 11.425781 -13.132812 11.6875 -13.34375 C 11.945312 -13.550781 12.21875 -13.65625 12.5 -13.65625 C 12.851562 -13.65625 13.140625 -13.535156 13.359375 -13.296875 C 13.578125 -13.054688 13.707031 -12.769531 13.75 -12.4375 C 13.851562 -11.488281 13.898438 -10.535156 13.890625 -9.578125 C 13.878906 -8.628906 13.847656 -7.675781 13.796875 -6.71875 C 13.742188 -5.769531 13.703125 -4.816406 13.671875 -3.859375 C 13.640625 -2.898438 13.644531 -1.945312 13.6875 -1 C 13.707031 -0.601562 13.585938 -0.304688 13.328125 -0.109375 C 13.066406 0.0859375 12.78125 0.1875 12.46875 0.1875 C 12.164062 0.1875 11.882812 0.0859375 11.625 -0.109375 C 11.363281 -0.304688 11.222656 -0.601562 11.203125 -1 C 10.015625 -0.5 8.753906 -0.210938 7.421875 -0.140625 C 6.097656 -0.0664062 4.835938 -0.300781 3.640625 -0.84375 Z M 3.859375 -7.59375 C 3.734375 -7.21875 3.617188 -6.789062 3.515625 -6.3125 C 3.410156 -5.832031 3.378906 -5.375 3.421875 -4.9375 C 3.460938 -4.507812 3.597656 -4.113281 3.828125 -3.75 C 4.054688 -3.382812 4.429688 -3.128906 4.953125 -2.984375 C 6.003906 -2.648438 7.0625 -2.554688 8.125 -2.703125 C 9.195312 -2.847656 10.203125 -3.222656 11.140625 -3.828125 C 11.222656 -4.835938 11.289062 -5.820312 11.34375 -6.78125 C 11.394531 -7.738281 11.410156 -8.703125 11.390625 -9.671875 C 11.035156 -9.898438 10.675781 -10.101562 10.3125 -10.28125 C 9.945312 -10.457031 9.546875 -10.578125 9.109375 -10.640625 C 8.679688 -10.703125 8.222656 -10.75 7.734375 -10.78125 C 7.242188 -10.8125 6.769531 -10.804688 6.3125 -10.765625 C 6.269531 -10.765625 6.160156 -10.738281 5.984375 -10.6875 C 5.804688 -10.632812 5.707031 -10.597656 5.6875 -10.578125 C 5.476562 -10.472656 5.296875 -10.304688 5.140625 -10.078125 C 4.867188 -9.703125 4.628906 -9.300781 4.421875 -8.875 C 4.210938 -8.457031 4.023438 -8.03125 3.859375 -7.59375 Z M 3.859375 -7.59375 "/></g></g></g><g fill="#ffffff" fill-opacity="1"><g transform="translate(140.941421, 37.991784)"><g><path d="M 4.078125 0.40625 C 3.785156 0.507812 3.46875 0.476562 3.125 0.3125 C 2.78125 0.144531 2.585938 -0.101562 2.546875 -0.4375 C 2.253906 -2.257812 2.070312 -4.066406 2 -5.859375 C 1.925781 -7.660156 1.890625 -9.472656 1.890625 -11.296875 C 1.890625 -11.609375 1.972656 -11.859375 2.140625 -12.046875 C 2.304688 -12.234375 2.503906 -12.351562 2.734375 -12.40625 C 2.960938 -12.46875 3.203125 -12.476562 3.453125 -12.4375 C 3.703125 -12.40625 3.910156 -12.304688 4.078125 -12.140625 C 4.554688 -12.523438 5.0625 -12.863281 5.59375 -13.15625 C 6.132812 -13.445312 6.679688 -13.640625 7.234375 -13.734375 C 7.785156 -13.828125 8.328125 -13.796875 8.859375 -13.640625 C 9.398438 -13.484375 9.910156 -13.15625 10.390625 -12.65625 C 10.785156 -12.25 11.128906 -11.8125 11.421875 -11.34375 C 11.710938 -10.875 11.972656 -10.378906 12.203125 -9.859375 C 12.503906 -10.648438 12.9375 -11.375 13.5 -12.03125 C 14.0625 -12.695312 14.78125 -13.144531 15.65625 -13.375 C 16.289062 -13.539062 16.796875 -13.503906 17.171875 -13.265625 C 17.546875 -13.023438 17.898438 -12.660156 18.234375 -12.171875 C 18.585938 -11.648438 18.910156 -11.117188 19.203125 -10.578125 C 19.503906 -10.035156 19.789062 -9.484375 20.0625 -8.921875 C 20.332031 -8.367188 20.59375 -7.8125 20.84375 -7.25 C 21.09375 -6.6875 21.34375 -6.132812 21.59375 -5.59375 C 21.882812 -5 22.140625 -4.40625 22.359375 -3.8125 C 22.578125 -3.21875 22.71875 -2.585938 22.78125 -1.921875 C 22.820312 -1.578125 22.703125 -1.285156 22.421875 -1.046875 C 22.140625 -0.804688 21.84375 -0.6875 21.53125 -0.6875 C 21.175781 -0.6875 20.890625 -0.804688 20.671875 -1.046875 C 20.453125 -1.285156 20.320312 -1.578125 20.28125 -1.921875 C 20.238281 -2.421875 20.109375 -2.90625 19.890625 -3.375 C 19.671875 -3.84375 19.460938 -4.304688 19.265625 -4.765625 C 19.035156 -5.234375 18.8125 -5.71875 18.59375 -6.21875 C 18.375 -6.71875 18.148438 -7.207031 17.921875 -7.6875 C 17.691406 -8.164062 17.445312 -8.640625 17.1875 -9.109375 C 16.925781 -9.585938 16.648438 -10.054688 16.359375 -10.515625 C 16.316406 -10.578125 16.273438 -10.640625 16.234375 -10.703125 C 16.191406 -10.765625 16.148438 -10.828125 16.109375 -10.890625 C 15.703125 -10.660156 15.40625 -10.441406 15.21875 -10.234375 C 15.03125 -10.023438 14.851562 -9.742188 14.6875 -9.390625 C 14.539062 -9.078125 14.421875 -8.75 14.328125 -8.40625 C 14.234375 -8.070312 14.15625 -7.726562 14.09375 -7.375 C 13.96875 -6.707031 13.875 -6.015625 13.8125 -5.296875 C 13.769531 -4.753906 13.773438 -4.234375 13.828125 -3.734375 C 13.878906 -3.234375 13.851562 -2.710938 13.75 -2.171875 C 13.6875 -1.847656 13.492188 -1.601562 13.171875 -1.4375 C 12.847656 -1.269531 12.535156 -1.226562 12.234375 -1.3125 C 11.941406 -1.394531 11.726562 -1.539062 11.59375 -1.75 C 11.457031 -1.96875 11.367188 -2.222656 11.328125 -2.515625 C 11.242188 -3.179688 11.148438 -3.863281 11.046875 -4.5625 C 10.941406 -5.269531 10.804688 -5.972656 10.640625 -6.671875 C 10.472656 -7.367188 10.257812 -8.039062 10 -8.6875 C 9.738281 -9.34375 9.398438 -9.953125 8.984375 -10.515625 C 8.703125 -10.890625 8.410156 -11.140625 8.109375 -11.265625 C 7.804688 -11.390625 7.4375 -11.335938 7 -11.109375 C 6.519531 -10.859375 6.050781 -10.554688 5.59375 -10.203125 C 5.144531 -9.847656 4.742188 -9.453125 4.390625 -9.015625 C 4.410156 -7.691406 4.457031 -6.367188 4.53125 -5.046875 C 4.601562 -3.734375 4.742188 -2.425781 4.953125 -1.125 C 4.992188 -0.769531 4.945312 -0.453125 4.8125 -0.171875 C 4.675781 0.109375 4.429688 0.300781 4.078125 0.40625 Z M 4.078125 0.40625 "/></g></g></g></svg>